<mxfile host="app.diagrams.net" modified="2024-02-18T09:03:53.454Z" agent="Mozilla/5.0 (Windows NT 10.0; Win64; x64) AppleWebKit/537.36 (KHTML, like Gecko) Chrome/121.0.0.0 Safari/537.36" etag="jy16u-TT_xAfkzyThbKH" version="23.1.5" type="device">
  <diagram name="Page-1" id="MrWrUPVFXarsbAtNqlaD">
    <mxGraphModel dx="2284" dy="1838" grid="1" gridSize="10" guides="1" tooltips="1" connect="1" arrows="1" fold="1" page="1" pageScale="1" pageWidth="850" pageHeight="1100" math="0" shadow="0">
      <root>
        <mxCell id="0" />
        <mxCell id="1" parent="0" />
        <mxCell id="Rillxg3ArQ3YHnwDrAzW-1" value="Identity&lt;br&gt;Service&lt;br&gt;DB" style="shape=cylinder3;whiteSpace=wrap;html=1;boundedLbl=1;backgroundOutline=1;size=15;fillColor=#dae8fc;strokeColor=#6c8ebf;" vertex="1" parent="1">
          <mxGeometry x="190" y="480" width="60" height="80" as="geometry" />
        </mxCell>
        <mxCell id="Rillxg3ArQ3YHnwDrAzW-2" value="Credential&lt;br&gt;schema&lt;br&gt;DB" style="shape=cylinder3;whiteSpace=wrap;html=1;boundedLbl=1;backgroundOutline=1;size=15;fillColor=#dae8fc;strokeColor=#6c8ebf;" vertex="1" parent="1">
          <mxGeometry x="480" y="480" width="60" height="80" as="geometry" />
        </mxCell>
        <mxCell id="Rillxg3ArQ3YHnwDrAzW-3" value="Credential&lt;br&gt;Issuance&lt;br&gt;DB" style="shape=cylinder3;whiteSpace=wrap;html=1;boundedLbl=1;backgroundOutline=1;size=15;fillColor=#dae8fc;strokeColor=#6c8ebf;" vertex="1" parent="1">
          <mxGeometry x="770" y="480" width="60" height="80" as="geometry" />
        </mxCell>
        <mxCell id="Rillxg3ArQ3YHnwDrAzW-18" style="edgeStyle=orthogonalEdgeStyle;rounded=0;orthogonalLoop=1;jettySize=auto;html=1;exitX=0;exitY=0.5;exitDx=0;exitDy=0;entryX=1;entryY=0.5;entryDx=0;entryDy=0;startArrow=classic;startFill=1;" edge="1" parent="1" source="Rillxg3ArQ3YHnwDrAzW-4" target="Rillxg3ArQ3YHnwDrAzW-15">
          <mxGeometry relative="1" as="geometry" />
        </mxCell>
        <mxCell id="Rillxg3ArQ3YHnwDrAzW-4" value="Identity Service" style="rounded=0;whiteSpace=wrap;html=1;fillColor=#dae8fc;strokeColor=#6c8ebf;" vertex="1" parent="1">
          <mxGeometry x="160" y="250" width="120" height="60" as="geometry" />
        </mxCell>
        <mxCell id="Rillxg3ArQ3YHnwDrAzW-16" style="edgeStyle=orthogonalEdgeStyle;rounded=0;orthogonalLoop=1;jettySize=auto;html=1;exitX=0;exitY=0.5;exitDx=0;exitDy=0;startArrow=classic;startFill=1;" edge="1" parent="1" source="Rillxg3ArQ3YHnwDrAzW-5" target="Rillxg3ArQ3YHnwDrAzW-4">
          <mxGeometry relative="1" as="geometry" />
        </mxCell>
        <mxCell id="Rillxg3ArQ3YHnwDrAzW-5" value="Credential Schema&lt;br&gt;Service" style="rounded=0;whiteSpace=wrap;html=1;fillColor=#dae8fc;strokeColor=#6c8ebf;" vertex="1" parent="1">
          <mxGeometry x="450" y="250" width="120" height="60" as="geometry" />
        </mxCell>
        <mxCell id="Rillxg3ArQ3YHnwDrAzW-10" style="edgeStyle=orthogonalEdgeStyle;rounded=0;orthogonalLoop=1;jettySize=auto;html=1;exitX=0.5;exitY=1;exitDx=0;exitDy=0;" edge="1" parent="1" source="Rillxg3ArQ3YHnwDrAzW-6" target="Rillxg3ArQ3YHnwDrAzW-3">
          <mxGeometry relative="1" as="geometry" />
        </mxCell>
        <mxCell id="Rillxg3ArQ3YHnwDrAzW-17" style="edgeStyle=orthogonalEdgeStyle;rounded=0;orthogonalLoop=1;jettySize=auto;html=1;exitX=0.25;exitY=1;exitDx=0;exitDy=0;entryX=0.75;entryY=1;entryDx=0;entryDy=0;startArrow=classic;startFill=1;" edge="1" parent="1" source="Rillxg3ArQ3YHnwDrAzW-6" target="Rillxg3ArQ3YHnwDrAzW-4">
          <mxGeometry relative="1" as="geometry">
            <Array as="points">
              <mxPoint x="770" y="370" />
              <mxPoint x="250" y="370" />
            </Array>
          </mxGeometry>
        </mxCell>
        <mxCell id="Rillxg3ArQ3YHnwDrAzW-6" value="Credential Issuance&lt;br&gt;Service" style="rounded=0;whiteSpace=wrap;html=1;fillColor=#dae8fc;strokeColor=#6c8ebf;" vertex="1" parent="1">
          <mxGeometry x="740" y="250" width="120" height="60" as="geometry" />
        </mxCell>
        <mxCell id="Rillxg3ArQ3YHnwDrAzW-11" style="edgeStyle=orthogonalEdgeStyle;rounded=0;orthogonalLoop=1;jettySize=auto;html=1;exitX=0.5;exitY=1;exitDx=0;exitDy=0;" edge="1" parent="1" source="Rillxg3ArQ3YHnwDrAzW-7" target="Rillxg3ArQ3YHnwDrAzW-4">
          <mxGeometry relative="1" as="geometry" />
        </mxCell>
        <mxCell id="Rillxg3ArQ3YHnwDrAzW-12" style="edgeStyle=orthogonalEdgeStyle;rounded=0;orthogonalLoop=1;jettySize=auto;html=1;exitX=0.5;exitY=1;exitDx=0;exitDy=0;entryX=0.5;entryY=0;entryDx=0;entryDy=0;" edge="1" parent="1" source="Rillxg3ArQ3YHnwDrAzW-7" target="Rillxg3ArQ3YHnwDrAzW-6">
          <mxGeometry relative="1" as="geometry" />
        </mxCell>
        <mxCell id="Rillxg3ArQ3YHnwDrAzW-13" style="edgeStyle=orthogonalEdgeStyle;rounded=0;orthogonalLoop=1;jettySize=auto;html=1;exitX=0.5;exitY=1;exitDx=0;exitDy=0;" edge="1" parent="1" source="Rillxg3ArQ3YHnwDrAzW-7" target="Rillxg3ArQ3YHnwDrAzW-5">
          <mxGeometry relative="1" as="geometry" />
        </mxCell>
        <mxCell id="Rillxg3ArQ3YHnwDrAzW-14" style="edgeStyle=orthogonalEdgeStyle;rounded=0;orthogonalLoop=1;jettySize=auto;html=1;exitX=0.5;exitY=0;exitDx=0;exitDy=0;startArrow=classic;startFill=1;endArrow=none;endFill=0;" edge="1" parent="1" source="Rillxg3ArQ3YHnwDrAzW-7">
          <mxGeometry relative="1" as="geometry">
            <mxPoint x="510" y="-20" as="targetPoint" />
          </mxGeometry>
        </mxCell>
        <mxCell id="Rillxg3ArQ3YHnwDrAzW-7" value="Ingress" style="rounded=0;whiteSpace=wrap;html=1;fillColor=#fff2cc;strokeColor=#d6b656;" vertex="1" parent="1">
          <mxGeometry x="160" y="50" width="700" height="60" as="geometry" />
        </mxCell>
        <mxCell id="Rillxg3ArQ3YHnwDrAzW-8" style="edgeStyle=orthogonalEdgeStyle;rounded=0;orthogonalLoop=1;jettySize=auto;html=1;exitX=0.5;exitY=1;exitDx=0;exitDy=0;entryX=0.5;entryY=0;entryDx=0;entryDy=0;entryPerimeter=0;" edge="1" parent="1" source="Rillxg3ArQ3YHnwDrAzW-4" target="Rillxg3ArQ3YHnwDrAzW-1">
          <mxGeometry relative="1" as="geometry" />
        </mxCell>
        <mxCell id="Rillxg3ArQ3YHnwDrAzW-9" style="edgeStyle=orthogonalEdgeStyle;rounded=0;orthogonalLoop=1;jettySize=auto;html=1;exitX=0.5;exitY=1;exitDx=0;exitDy=0;entryX=0.5;entryY=0;entryDx=0;entryDy=0;entryPerimeter=0;" edge="1" parent="1" source="Rillxg3ArQ3YHnwDrAzW-5" target="Rillxg3ArQ3YHnwDrAzW-2">
          <mxGeometry relative="1" as="geometry" />
        </mxCell>
        <mxCell id="Rillxg3ArQ3YHnwDrAzW-15" value="Hashicorp&lt;br&gt;Vault" style="rounded=0;whiteSpace=wrap;html=1;fillColor=#dae8fc;strokeColor=#6c8ebf;" vertex="1" parent="1">
          <mxGeometry x="-60" y="250" width="120" height="60" as="geometry" />
        </mxCell>
        <mxCell id="Rillxg3ArQ3YHnwDrAzW-19" value="Core Credentialling&lt;br&gt;Services" style="rounded=0;whiteSpace=wrap;html=1;fillColor=#dae8fc;strokeColor=#6c8ebf;" vertex="1" parent="1">
          <mxGeometry x="-130" y="480" width="120" height="60" as="geometry" />
        </mxCell>
        <mxCell id="Rillxg3ArQ3YHnwDrAzW-20" value="Auxiliary Services" style="rounded=0;whiteSpace=wrap;html=1;fillColor=#fff2cc;strokeColor=#d6b656;" vertex="1" parent="1">
          <mxGeometry x="-130" y="560" width="120" height="60" as="geometry" />
        </mxCell>
      </root>
    </mxGraphModel>
  </diagram>
</mxfile>
